<?xml version="1.0" standalone="no"?>
<!DOCTYPE svg PUBLIC "-//W3C//DTD SVG 20010904//EN"
 "http://www.w3.org/TR/2001/REC-SVG-20010904/DTD/svg10.dtd">
<svg version="1.0" xmlns="http://www.w3.org/2000/svg"
 width="250.000000pt" height="250.000000pt" viewBox="0 0 250.000000 250.000000"
 preserveAspectRatio="xMidYMid meet">

<g transform="translate(0.000000,250.000000) scale(0.100000,-0.100000)"
fill="#000000" stroke="none">
<path d="M1039 1811 c-68 -70 -95 -91 -123 -96 -52 -10 -84 1 -106 38 -22 35
-19 57 11 100 l20 27 -24 0 c-74 0 -106 -170 -54 -283 82 -179 252 -180 422
-2 l71 74 42 -55 c74 -95 206 -164 289 -151 55 9 112 54 147 117 28 50 31 63
31 140 0 72 -4 91 -23 123 -17 26 -31 37 -48 37 -29 0 -30 -5 -4 -37 28 -36
25 -70 -9 -104 -33 -33 -75 -38 -119 -15 -15 8 -62 51 -104 95 -85 90 -112
100 -174 62 -31 -19 -32 -19 -60 0 -16 10 -45 19 -63 19 -31 0 -46 -11 -122
-89z"/>
<path d="M1198 1582 c-80 -105 -180 -149 -310 -136 l-66 6 -17 -77 c-21 -92
-16 -199 11 -264 10 -25 20 -39 22 -33 8 26 22 10 22 -25 0 -95 65 -243 106
-243 7 0 36 -25 65 -55 28 -30 72 -68 98 -84 44 -28 142 -63 208 -75 31 -5 32
-4 27 24 -6 26 2 38 67 108 41 44 79 78 86 76 18 -5 82 71 109 130 13 28 27
72 30 99 6 46 17 60 27 35 3 -7 13 5 23 27 28 63 24 212 -7 289 l-24 59 -95 1
c-125 2 -179 25 -255 109 -30 33 -55 64 -55 68 0 4 -7 9 -15 12 -9 4 -29 -13
-57 -51z m462 -319 c12 -50 -3 -103 -37 -134 l-26 -24 24 40 c18 31 24 54 24
102 0 69 3 72 15 16z m-656 -185 c10 -26 33 -61 52 -78 39 -34 37 -37 -6 -15
-32 17 -63 69 -75 125 -10 47 7 29 29 -32z m-6 -107 c46 -96 125 -181 204
-221 34 -16 72 -30 85 -30 14 0 21 -4 18 -10 -3 -5 -22 -10 -42 -10 -130 0
-244 114 -302 304 -22 72 -27 108 -9 66 6 -14 27 -58 46 -99z"/>
</g>
</svg>
