<?xml version="1.0" standalone="no"?>
<!DOCTYPE svg PUBLIC "-//W3C//DTD SVG 20010904//EN"
 "http://www.w3.org/TR/2001/REC-SVG-20010904/DTD/svg10.dtd">
<svg version="1.0" xmlns="http://www.w3.org/2000/svg"
 width="250.000000pt" height="250.000000pt" viewBox="0 0 250.000000 250.000000"
 preserveAspectRatio="xMidYMid meet">

<g transform="translate(0.000000,250.000000) scale(0.100000,-0.100000)"
fill="#000000" stroke="none">
<path d="M1173 1841 c-40 -11 -82 -25 -94 -32 -19 -10 -21 -9 -16 5 4 9 4 16
1 16 -3 0 -43 -22 -90 -50 -47 -27 -91 -50 -98 -50 -17 0 -111 -100 -120 -128
-4 -12 -22 -28 -40 -36 -20 -8 -54 -42 -90 -90 -32 -42 -67 -82 -78 -89 -27
-17 -55 -65 -63 -109 -4 -21 -11 -38 -16 -38 -22 0 -7 -49 24 -76 32 -28 33
-32 50 -171 10 -78 26 -165 36 -195 22 -62 63 -148 70 -148 4 0 8 59 10 132 1
73 7 143 13 157 5 15 12 70 15 123 l6 97 51 17 c79 26 114 46 230 133 59 45
117 81 128 81 11 0 35 -13 53 -29 19 -16 60 -40 92 -52 55 -23 70 -24 288 -24
225 0 231 -1 263 -23 18 -13 39 -37 47 -52 19 -36 39 -304 33 -442 -2 -53 0
-94 4 -92 4 3 8 11 8 19 0 8 20 54 45 102 31 60 57 133 81 227 40 155 40 174
-3 309 -13 44 -22 85 -19 93 6 16 -68 82 -101 90 -25 7 -30 20 -10 27 6 2 -15
12 -49 21 -53 15 -66 24 -100 68 -71 92 -94 116 -143 147 -115 74 -282 99
-418 62z m163 -162 c50 -24 99 -76 125 -133 29 -65 24 -86 -10 -40 -98 133
-217 162 -461 108 -33 -7 34 31 110 63 74 30 176 31 236 2z m215 -69 c50 -59
51 -125 3 -177 -21 -23 -24 -24 -20 -8 16 62 17 76 6 113 -6 23 -26 62 -45 87
-19 25 -35 48 -35 51 0 13 65 -34 91 -66z m135 -114 c-6 -23 -94 -102 -103
-92 -3 3 33 89 45 106 2 2 7 -2 12 -10 6 -10 10 -7 16 16 4 16 9 33 12 38 10
17 25 -32 18 -58z m-555 6 c24 -16 51 -37 59 -47 14 -17 13 -17 -10 -9 -14 5
-63 8 -110 8 -71 -1 -101 -7 -184 -38 -55 -20 -105 -36 -113 -34 -7 2 38 29
102 61 109 55 140 76 95 64 -11 -3 -20 -1 -20 3 0 11 31 17 91 19 34 1 56 -6
90 -27z m679 -22 c0 -5 10 -10 23 -10 13 0 32 -7 43 -15 18 -13 18 -14 1 -15
-28 0 -107 21 -107 30 0 11 12 20 27 20 7 0 13 -4 13 -10z m-994 -145 c-35
-26 -126 -55 -152 -49 -40 10 -38 24 5 24 21 0 41 5 43 10 2 6 23 14 48 19 69
13 78 13 56 -4z m49 -31 c-47 -41 -146 -91 -195 -99 -25 -4 -44 0 -67 15 -18
11 -33 23 -33 27 0 5 22 6 49 5 57 -4 131 16 211 57 74 38 83 37 35 -5z"/>
</g>
</svg>
