<?xml version="1.0" standalone="no"?>
<!DOCTYPE svg PUBLIC "-//W3C//DTD SVG 20010904//EN"
 "http://www.w3.org/TR/2001/REC-SVG-20010904/DTD/svg10.dtd">
<svg version="1.0" xmlns="http://www.w3.org/2000/svg"
 width="250.000000pt" height="250.000000pt" viewBox="0 0 250.000000 250.000000"
 preserveAspectRatio="xMidYMid meet">

<g transform="translate(0.000000,250.000000) scale(0.100000,-0.100000)"
fill="#000000" stroke="none">
<path d="M1160 2280 c-65 -23 -63 -23 -55 -10 11 17 -5 11 -74 -30 -37 -22
-72 -40 -78 -40 -15 0 -79 -73 -88 -99 -3 -12 -12 -21 -20 -21 -20 0 -174
-176 -180 -207 -4 -16 -10 -36 -16 -45 -14 -28 -11 -41 17 -63 22 -18 27 -32
35 -105 13 -120 24 -167 56 -235 l28 -60 6 105 c3 58 11 132 18 165 6 33 11
76 11 96 0 34 3 37 43 48 52 16 93 40 181 108 38 29 78 53 89 53 10 0 32 -11
49 -25 53 -45 121 -57 296 -53 238 4 241 1 249 -284 l6 -190 17 45 c10 25 27
61 38 79 24 38 72 220 72 271 0 20 -9 64 -20 99 -11 34 -20 73 -20 85 0 22
-37 57 -70 68 -11 3 -17 11 -14 18 2 7 -15 18 -43 27 -39 12 -56 26 -92 74
-50 65 -112 109 -185 131 -70 21 -189 19 -256 -5z m185 -134 c21 -16 47 -50
61 -79 25 -56 24 -75 -3 -36 -60 84 -146 118 -258 101 -39 -6 -80 -14 -91 -18
-45 -16 6 18 62 42 83 35 175 31 229 -10z m106 -7 c56 -40 72 -98 42 -150 -22
-36 -36 -38 -23 -3 15 37 3 87 -31 134 -33 45 -30 49 12 19z m104 -149 c-22
-22 -42 -40 -46 -40 -4 0 0 18 8 40 11 26 21 39 30 36 8 -3 13 2 13 13 0 28
14 34 24 11 8 -17 3 -28 -29 -60z m-380 25 c20 -15 35 -29 33 -31 -2 -2 -21 1
-42 7 -46 13 -93 5 -202 -31 -46 -16 -84 -25 -84 -21 0 4 36 25 81 46 44 22
75 41 68 44 -26 8 18 22 63 18 32 -3 59 -13 83 -32z m510 -5 c3 -5 15 -10 25
-10 10 0 22 -5 26 -11 5 -9 -4 -10 -32 -4 -47 8 -56 13 -49 26 8 12 22 12 30
-1z m-780 -116 c-34 -25 -92 -39 -117 -26 -22 10 -21 11 10 11 17 1 32 5 32
10 0 9 25 14 80 19 11 1 9 -3 -5 -14z m30 -30 c-93 -66 -154 -80 -196 -44
l-24 20 35 -5 c36 -6 141 21 190 50 48 27 45 15 -5 -21z"/>
<path d="M1106 1238 c-32 -35 -71 -71 -85 -80 -78 -53 -167 26 -115 100 19 27
14 36 -14 28 -56 -18 -71 -165 -26 -254 36 -73 74 -97 149 -97 83 0 163 48
233 139 l22 29 58 -61 c90 -96 199 -135 271 -98 42 22 89 81 102 128 16 61 7
152 -18 186 -24 33 -60 44 -48 16 30 -73 30 -73 9 -101 -44 -58 -98 -43 -190
53 -77 80 -98 88 -155 59 -27 -14 -32 -14 -51 0 -45 31 -78 20 -142 -47z"/>
<path d="M1224 1027 c-25 -32 -61 -63 -95 -82 -48 -26 -62 -29 -136 -28 l-83
1 -10 -36 c-22 -77 -23 -150 -5 -218 12 -43 22 -64 30 -60 9 3 15 -11 19 -44
12 -88 56 -180 87 -180 4 0 34 -26 66 -58 65 -65 118 -94 211 -116 58 -13 63
-13 61 2 -5 32 12 60 56 96 24 20 47 46 50 57 4 12 13 18 21 15 33 -13 124
141 124 211 0 20 3 23 14 14 17 -14 24 1 36 76 10 59 -3 159 -26 208 -14 30
-14 30 -96 30 -73 0 -89 3 -137 30 -34 19 -69 50 -94 82 -22 29 -42 53 -46 53
-3 0 -24 -24 -47 -53z m396 -290 c0 -31 -6 -61 -16 -75 -25 -36 -34 -25 -12
16 12 23 18 51 16 75 -2 20 0 37 4 37 5 0 8 -24 8 -53z m-509 -200 c12 -9 20
-19 17 -22 -10 -10 -60 38 -74 71 -24 56 -14 72 10 18 13 -28 34 -58 47 -67z
m23 -134 c46 -51 131 -102 170 -104 19 0 19 -1 -2 -10 -60 -24 -172 43 -225
134 -24 41 -68 159 -66 181 0 6 17 -25 38 -69 21 -44 59 -103 85 -132z"/>
</g>
</svg>
